<svg xmlns="http://www.w3.org/2000/svg" viewBox="0 0 400.002 676.395"><path d="M67.387 0l41.735 111.6H83.63l-8.435-24.856H33.453L24.686 111.6H0L42.204 0h25.183zm1.4 68.47l-14.09-40.96h-.3l-14.54 40.96h28.93zM209.09 0c6.973 0 12.897 1.02 17.803 3.052 4.923 2.036 8.9 4.714 11.97 8.052 3.092 3.332 5.308 7.13 6.7 11.413 1.438 4.26 2.124 8.7 2.124 13.286 0 4.48-.686 8.886-2.125 13.215-1.392 4.318-3.607 8.14-6.698 11.483-3.07 3.338-7.048 6.016-11.97 8.04-4.906 2.043-10.83 3.064-17.804 3.064H183.3V111.6h-24.566V0h50.356zm-6.732 52.53c2.813 0 5.533-.21 8.138-.63 2.602-.41 4.875-1.22 6.882-2.427 1.975-1.19 3.562-2.894 4.76-5.07 1.196-2.2 1.794-5.06 1.794-8.6 0-3.542-.598-6.413-1.793-8.606-1.2-2.182-2.787-3.88-4.762-5.076-2.007-1.195-4.28-2.006-6.882-2.42-2.604-.408-5.324-.624-8.138-.624H183.3V52.53h19.058zM341.176 0L382.9 111.6h-25.49l-8.434-24.856H307.26l-8.768 24.856h-24.685L316.002 0h25.174zm1.41 68.47l-14.08-40.96h-.313l-14.527 40.96h28.92zM71.93 187.59c4.98 0 9.472.805 13.495 2.41 4.023 1.628 7.465 3.833 10.326 6.658 2.868 2.812 5.072 6.074 6.563 9.767 1.527 3.7 2.262 7.68 2.262 11.956 0 6.553-1.36 12.253-4.127 17.044-2.768 4.784-7.283 8.45-13.525 10.934v.315c3.02.822 5.536 2.112 7.48 3.84 2 1.708 3.618 3.745 4.862 6.078 1.255 2.358 2.173 4.938 2.753 7.75.57 2.812.938 5.624 1.152 8.437.103 1.762.224 3.863.296 6.255.124 2.392.302 4.848.598 7.346.24 2.503.66 4.872 1.214 7.106.588 2.247 1.437 4.16 2.59 5.7H83.333c-1.38-3.547-2.2-7.736-2.515-12.66-.302-4.89-.767-9.587-1.395-14.045-.848-5.835-2.616-10.113-5.31-12.837-2.722-2.713-7.135-4.067-13.28-4.067H36.267v43.608H11.745V187.59H71.93zm-8.778 50.48c5.635 0 9.873-1.26 12.668-3.745 2.81-2.51 4.23-6.564 4.23-12.207 0-5.415-1.42-9.335-4.23-11.786-2.795-2.462-7.033-3.688-12.668-3.688H36.267v31.425h26.885zM144.296 208.204V187.59h91.443v20.614h-33.454v90.98h-24.54v-90.98h-33.45zM314.348 187.59l26.098 76.75h.34l24.704-76.75h34.513v111.593H377.04v-79.1h-.333l-27.35 79.1h-18.89L303.1 220.877h-.3v78.306h-22.977V187.59h34.525zM95.208 375.168v20.625h-58.94v23.927H90.35v19.058H36.268v27.365H96.44v20.63H11.745V375.17h83.463zM168.67 375.168l46.586 74.86h.312v-74.86h22.976v111.606H214l-46.428-74.72h-.31v74.72h-22.966V375.168h24.374zM282.637 395.793v-20.625h91.425v20.625h-33.438v90.98H316.09v-90.98h-33.453zM8.92 589.552c1.685-5.352 4.175-10.048 7.507-14.063 3.335-4.015 7.524-7.143 12.565-9.376 5.07-2.246 10.866-3.375 17.443-3.375 5 0 9.756.78 14.308 2.362 4.534 1.548 8.51 3.8 11.935 6.704 3.444 2.918 6.197 6.522 8.2 10.806 2.048 4.265 3.08 9.067 3.08 14.356 0 5.536-.896 10.262-2.675 14.247-1.783 3.945-4.117 7.48-7.018 10.53-2.934 3.09-6.24 5.872-9.934 8.375-3.724 2.502-7.418 4.977-11.19 7.428-3.74 2.454-7.405 5.08-10.937 7.9-3.547 2.794-6.66 6.096-9.382 9.842h51.752v19.067H4.235c0-6.354.915-11.89 2.737-16.57 1.826-4.68 4.266-8.887 7.407-12.584 3.123-3.713 6.82-7.12 11.022-10.248 4.25-3.127 8.66-6.3 13.375-9.532 2.382-1.657 4.935-3.345 7.657-5.09 2.71-1.695 5.18-3.61 7.438-5.69 2.228-2.08 4.11-4.432 5.627-7.034 1.51-2.61 2.26-5.58 2.26-8.914 0-5.316-1.543-9.442-4.612-12.424-3.063-2.977-7.027-4.44-11.802-4.44-3.23 0-5.983.75-8.214 2.258-2.24 1.506-4.04 3.483-5.382 5.946-1.382 2.415-2.324 5.14-2.892 8.123-.582 2.97-.884 5.91-.884 8.822H6.72c-.185-6.253.52-12.057 2.2-17.43zM152.12 583.204l-4.383 24.866.31.32c2.995-3.027 6.226-5.18 9.682-6.48 3.442-1.32 7.333-1.98 11.728-1.98 5.415 0 10.19 1.023 14.38 2.982 4.174 1.98 7.69 4.658 10.516 7.978 2.916 3.34 5.102 7.268 6.596 11.814 1.515 4.52 2.245 9.342 2.245 14.452 0 5.626-1.077 10.863-3.263 15.708-2.197 4.848-5.144 9.037-8.822 12.583-3.71 3.55-7.99 6.267-12.898 8.198-4.908 1.926-10.114 2.837-15.62 2.744-5.312 0-10.41-.713-15.255-2.12-4.85-1.395-9.13-3.56-12.898-6.472-3.74-2.922-6.75-6.556-8.978-10.863-2.275-4.34-3.43-9.354-3.5-15.095h22.187c.506 5.008 2.36 8.986 5.634 11.95 3.206 2.964 7.335 4.464 12.315 4.464 2.927 0 5.58-.606 7.91-1.802 2.352-1.198 4.33-2.75 5.91-4.682 1.633-1.932 2.907-4.177 3.755-6.716.903-2.572 1.35-5.192 1.35-7.9 0-2.812-.404-5.47-1.243-7.968-.852-2.5-2.107-4.693-3.756-6.57-1.66-1.873-3.634-3.34-5.937-4.39-2.305-1.033-4.98-1.552-7.99-1.552-3.964 0-7.182.7-9.684 2.107-2.48 1.408-4.845 3.623-7.027 6.642h-20.02l10.773-60.5h61.126v18.282h-45.15zM400.002 622.14v19.082h-154.44V622.14h154.44z"/></svg>