<!DOCTYPE svg PUBLIC "-//W3C//DTD SVG 1.1//EN" "http://www.w3.org/Graphics/SVG/1.1/DTD/svg11.dtd">
<svg id="logo" version="1.1" xmlns="http://www.w3.org/2000/svg" xmlns:xlink="http://www.w3.org/1999/xlink" x="0px" y="0px"
	 width="82.792px" height="140px" viewBox="-9.396 -38 82.792 140" enable-background="new -9.396 -38 82.792 140"
	 xml:space="preserve">
<polygon points="-1.889,52.816 9.305,52.816 9.305,48.871 -1.889,48.871 -1.889,43.921 10.31,43.921 10.31,39.652 -6.965,39.652
	-6.965,62.752 10.565,62.752 10.565,58.479 -1.889,58.479 "/><path d="M-0.661,95.595c0.73-0.585,1.49-1.128,2.263-1.637c0.781-0.508,1.546-1.021,2.317-1.538
	c0.765-0.517,1.448-1.094,2.056-1.731c0.6-0.632,1.083-1.363,1.453-2.181c0.369-0.825,0.553-1.804,0.553-2.948
	c0-1.094-0.213-2.09-0.637-2.972c-0.415-0.887-0.984-1.633-1.697-2.237c-0.708-0.6-1.532-1.067-2.47-1.388
	c-0.942-0.325-1.926-0.488-2.962-0.488c-1.362,0-2.561,0.234-3.61,0.699c-1.043,0.462-1.911,1.108-2.601,1.939
	c-0.69,0.832-1.205,1.804-1.555,2.912c-0.347,1.11-0.493,2.311-0.455,3.605h4.398c0-0.602,0.063-1.211,0.184-1.823
	c0.117-0.62,0.312-1.185,0.598-1.684c0.277-0.509,0.65-0.919,1.113-1.23c0.461-0.312,1.032-0.466,1.7-0.466
	c0.989,0,1.809,0.301,2.444,0.919c0.634,0.615,0.954,1.47,0.954,2.571c0,0.688-0.155,1.303-0.468,1.843
	c-0.314,0.539-0.703,1.025-1.164,1.456c-0.468,0.431-0.979,0.829-1.54,1.179c-0.564,0.361-1.092,0.71-1.584,1.053
	c-0.976,0.669-1.889,1.327-2.769,1.973c-0.87,0.649-1.635,1.354-2.282,2.123c-0.65,0.765-1.155,1.636-1.533,2.604
	c-0.377,0.968-0.567,2.113-0.567,3.429H8.11v-3.945H-2.602C-2.038,96.855-1.395,96.172-0.661,95.595z"/>
<g><polygon fill="none" points="58.531,-32.306 55.526,-23.828 61.512,-23.828 58.599,-32.306 	"/><path d="M61.22-38h-5.209l-8.735,23.099h5.11l1.813-5.146h8.635l1.747,5.146h5.275L61.22-38z M55.526-23.828l3.005-8.478h0.067
		l2.913,8.478H55.526z"/></g><polygon points="27.393,23.925 32.473,23.925 32.473,5.094 39.396,5.094 39.396,0.828 20.47,0.828 20.47,5.094 27.393,5.094 "/><g><path fill="none" d="M3.675,4.772h-5.564v6.503h5.564c1.167,0,2.044-0.26,2.622-0.774c0.583-0.52,0.876-1.359,0.876-2.527
		c0-1.12-0.294-1.932-0.876-2.439C5.719,5.025,4.841,4.772,3.675,4.772z"/><path d="M12.395,22.746c-0.115-0.462-0.202-0.952-0.251-1.471c-0.062-0.517-0.098-1.025-0.124-1.521
		c-0.015-0.495-0.041-0.93-0.062-1.294c-0.043-0.583-0.12-1.164-0.238-1.747c-0.12-0.582-0.31-1.116-0.569-1.604
		c-0.258-0.483-0.593-0.903-1.007-1.258c-0.402-0.357-0.923-0.625-1.548-0.794v-0.065c1.292-0.515,2.226-1.274,2.799-2.264
		c0.573-0.993,0.853-2.172,0.853-3.528c0-0.885-0.151-1.709-0.467-2.475c-0.309-0.765-0.765-1.44-1.358-2.022
		C9.831,2.12,9.118,1.664,8.285,1.326C7.453,0.994,6.522,0.828,5.492,0.828H-6.965v23.097h5.076v-9.025h5.084
		c1.272,0,2.186,0.28,2.748,0.842c0.558,0.564,0.924,1.449,1.099,2.656c0.131,0.923,0.227,1.896,0.29,2.908
		c0.065,1.019,0.235,1.886,0.52,2.62h5.079C12.692,23.607,12.517,23.21,12.395,22.746z M6.297,10.501
		c-0.578,0.514-1.456,0.774-2.622,0.774h-5.564V4.772h5.564c1.167,0,2.044,0.253,2.622,0.762c0.583,0.508,0.876,1.319,0.876,2.439
		C7.173,9.142,6.879,9.981,6.297,10.501z"/></g><g><path fill="none" d="M35.597-33.421c-0.415-0.248-0.886-0.416-1.424-0.501c-0.54-0.084-1.103-0.129-1.685-0.129h-3.944v6.923h3.944
		c0.582,0,1.145-0.042,1.685-0.131c0.538-0.084,1.009-0.251,1.424-0.501c0.409-0.247,0.737-0.599,0.986-1.05
		c0.244-0.455,0.369-1.046,0.369-1.779s-0.125-1.328-0.369-1.781C36.333-32.823,36.006-33.174,35.597-33.421z"/><path d="M41.43-33.339c-0.287-0.887-0.745-1.673-1.385-2.362c-0.636-0.691-1.461-1.246-2.478-1.667
		C36.55-37.788,35.323-38,33.88-38H23.458v23.099h5.085v-8.277h5.336c1.443,0,2.67-0.212,3.688-0.635
		c1.017-0.418,1.842-0.973,2.478-1.664c0.64-0.691,1.098-1.483,1.385-2.376c0.299-0.896,0.44-1.809,0.44-2.736
		C41.87-31.539,41.729-32.458,41.43-33.339z M36.583-28.81c-0.249,0.451-0.577,0.803-0.986,1.05
		c-0.415,0.25-0.886,0.417-1.424,0.501c-0.54,0.088-1.103,0.131-1.685,0.131h-3.944v-6.923h3.944c0.582,0,1.145,0.045,1.685,0.129
		c0.538,0.085,1.009,0.253,1.424,0.501c0.409,0.247,0.736,0.598,0.986,1.05c0.244,0.454,0.369,1.048,0.369,1.781
		S36.827-29.265,36.583-28.81z"/></g><rect x="41.43" y="90.769" width="31.966" height="3.951"/><polygon points="61.106,62.752 61.106,43.921 68.026,43.921 68.026,39.652 49.103,39.652 49.103,43.921 56.028,43.921
	56.028,62.752 "/><polygon points="66.252,0.828 61.138,16.713 61.069,16.713 55.667,0.828 48.521,0.828 48.521,23.925 53.276,23.925 53.276,7.717
	53.341,7.717 59.003,23.925 62.913,23.925 68.573,7.553 68.645,7.553 68.645,23.925 73.396,23.925 73.396,0.828 "/><g><polygon fill="none" points="1.863,-32.306 -1.147,-23.828 4.841,-23.828 1.925,-32.306 	"/><path d="M4.552-38h-5.212l-8.735,23.099h5.109l1.814-5.146h8.64l1.747,5.146h5.275L4.552-38z M-1.147-23.828l3.01-8.478h0.062
		l2.916,8.478H-1.147z"/></g><polygon points="35.221,55.147 35.157,55.147 25.516,39.652 20.47,39.652 20.47,62.752 25.224,62.752 25.224,47.286 25.288,47.286
	34.897,62.752 39.977,62.752 39.977,39.652 35.221,39.652 "/><path d="M30.832,88.44c-0.585-0.685-1.313-1.24-2.177-1.65c-0.867-0.406-1.856-0.615-2.976-0.615c-0.909,0-1.714,0.134-2.427,0.407
	c-0.716,0.27-1.384,0.716-2.005,1.342l-0.064-0.065l0.908-5.149h9.343v-3.78H18.781l-2.229,12.52h4.143
	c0.452-0.625,0.941-1.083,1.455-1.373c0.519-0.291,1.184-0.436,2.005-0.436c0.622,0,1.176,0.106,1.653,0.319
	c0.477,0.219,0.886,0.522,1.229,0.908c0.342,0.39,0.602,0.845,0.778,1.361c0.173,0.518,0.257,1.068,0.257,1.649
	c0,0.559-0.093,1.102-0.279,1.637c-0.175,0.524-0.439,0.988-0.777,1.388c-0.327,0.4-0.737,0.722-1.223,0.971
	c-0.483,0.247-1.032,0.371-1.637,0.371c-1.031,0-1.886-0.31-2.55-0.923c-0.678-0.615-1.061-1.438-1.166-2.475h-4.593
	c0.015,1.188,0.254,2.227,0.725,3.124c0.461,0.894,1.084,1.646,1.859,2.249c0.779,0.604,1.666,1.052,2.67,1.34
	c1.001,0.29,2.057,0.439,3.158,0.439c1.139,0.018,2.216-0.171,3.232-0.567c1.016-0.402,1.901-0.964,2.669-1.698
	c0.762-0.732,1.372-1.601,1.825-2.604c0.453-1.004,0.676-2.088,0.676-3.251c0-1.059-0.151-2.055-0.465-2.991
	C31.887,89.947,31.435,89.134,30.832,88.44z"/>
</svg>
