<svg id="logo" xmlns="http://www.w3.org/2000/svg" width="82.792" height="140" viewBox="-9.396 -38 82.792 140" enable-background="new -9.396 -38 82.792 140"><path d="M-1.889 52.816h11.194v-3.945h-11.194v-4.95h12.199v-4.269h-17.275v23.1h17.53v-4.273h-12.454zM-.661 95.595c.73-.585 1.49-1.128 2.263-1.637.781-.508 1.546-1.021 2.317-1.538.765-.517 1.448-1.094 2.056-1.731.6-.632 1.083-1.363 1.453-2.181.369-.825.553-1.804.553-2.948 0-1.094-.213-2.09-.637-2.972-.415-.887-.984-1.633-1.697-2.237-.708-.6-1.532-1.067-2.47-1.388-.942-.325-1.926-.488-2.962-.488-1.362 0-2.561.234-3.61.699-1.043.462-1.911 1.108-2.601 1.939-.69.832-1.205 1.804-1.555 2.912-.347 1.11-.493 2.311-.455 3.605h4.398c0-.602.063-1.211.184-1.823.117-.62.312-1.185.598-1.684.277-.509.65-.919 1.113-1.23.461-.312 1.032-.466 1.7-.466.989 0 1.809.301 2.444.919.634.615.954 1.47.954 2.571 0 .688-.155 1.303-.468 1.843-.314.539-.703 1.025-1.164 1.456-.468.431-.979.829-1.54 1.179-.564.361-1.092.71-1.584 1.053-.976.669-1.889 1.327-2.769 1.973-.87.649-1.635 1.354-2.282 2.123-.65.765-1.155 1.636-1.533 2.604-.377.968-.567 2.113-.567 3.429h16.632v-3.945h-10.712c.564-.777 1.207-1.46 1.941-2.037z"/><path fill="none" d="M58.531-32.306l-3.005 8.478h5.986l-2.913-8.478z"/><path d="M61.22-38h-5.209l-8.735 23.099h5.11l1.813-5.146h8.635l1.747 5.146h5.275l-8.636-23.099zm-5.694 14.172l3.005-8.478h.067l2.913 8.478h-5.985zM27.393 23.925h5.08v-18.831h6.923v-4.266h-18.926v4.266h6.923z"/><path d="M3.675 4.772h-5.564v6.503h5.564c1.167 0 2.044-.26 2.622-.774.583-.52.876-1.359.876-2.527 0-1.12-.294-1.932-.876-2.439-.578-.51-1.456-.763-2.622-.763z" fill="none"/><path d="M12.395 22.746c-.115-.462-.202-.952-.251-1.471-.062-.517-.098-1.025-.124-1.521-.015-.495-.041-.93-.062-1.294-.043-.583-.12-1.164-.238-1.747-.12-.582-.31-1.116-.569-1.604-.258-.483-.593-.903-1.007-1.258-.402-.357-.923-.625-1.548-.794v-.065c1.292-.515 2.226-1.274 2.799-2.264.573-.993.853-2.172.853-3.528 0-.885-.151-1.709-.467-2.475-.309-.765-.765-1.44-1.358-2.022-.592-.583-1.305-1.039-2.138-1.377-.832-.332-1.763-.498-2.793-.498h-12.457v23.097h5.076v-9.025h5.084c1.272 0 2.186.28 2.748.842.558.564.924 1.449 1.099 2.656.131.923.227 1.896.29 2.908.065 1.019.235 1.886.52 2.62h5.079c-.239-.319-.414-.716-.536-1.18zm-6.098-12.245c-.578.514-1.456.774-2.622.774h-5.564v-6.503h5.564c1.167 0 2.044.253 2.622.762.583.508.876 1.319.876 2.439 0 1.169-.294 2.008-.876 2.528z"/><path d="M35.597-33.421c-.415-.248-.886-.416-1.424-.501-.54-.084-1.103-.129-1.685-.129h-3.944v6.923h3.944c.582 0 1.145-.042 1.685-.131.538-.084 1.009-.251 1.424-.501.409-.247.737-.599.986-1.05.244-.455.369-1.046.369-1.779s-.125-1.328-.369-1.781c-.25-.453-.577-.804-.986-1.051z" fill="none"/><path d="M41.43-33.339c-.287-.887-.745-1.673-1.385-2.362-.636-.691-1.461-1.246-2.478-1.667-1.017-.42-2.244-.632-3.687-.632h-10.422v23.099h5.085v-8.277h5.336c1.443 0 2.67-.212 3.688-.635 1.017-.418 1.842-.973 2.478-1.664.64-.691 1.098-1.483 1.385-2.376.299-.896.44-1.809.44-2.736 0-.95-.141-1.869-.44-2.75zm-4.847 4.529c-.249.451-.577.803-.986 1.05-.415.25-.886.417-1.424.501-.54.088-1.103.131-1.685.131h-3.944v-6.923h3.944c.582 0 1.145.045 1.685.129.538.085 1.009.253 1.424.501.409.247.736.598.986 1.05.244.454.369 1.048.369 1.781s-.125 1.325-.369 1.78zM41.43 90.769h31.966v3.951h-31.966zM61.106 62.752v-18.831h6.92v-4.269h-18.923v4.269h6.925v18.831zM66.252.828l-5.114 15.885h-.069l-5.402-15.885h-7.146v23.097h4.755v-16.208h.065l5.662 16.208h3.91l5.66-16.372h.072v16.372h4.751v-23.097z"/><path fill="none" d="M1.863-32.306l-3.01 8.478h5.988l-2.916-8.478z"/><path d="M4.552-38h-5.212l-8.735 23.099h5.109l1.814-5.146h8.64l1.747 5.146h5.275l-8.638-23.099zm-5.699 14.172l3.01-8.478h.062l2.916 8.478h-5.988zM35.221 55.147h-.064l-9.641-15.495h-5.046v23.1h4.754v-15.466h.064l9.609 15.466h5.08v-23.1h-4.756zM30.832 88.44c-.585-.685-1.313-1.24-2.177-1.65-.867-.406-1.856-.615-2.976-.615-.909 0-1.714.134-2.427.407-.716.27-1.384.716-2.005 1.342l-.064-.065.908-5.149h9.343v-3.78h-12.653l-2.229 12.52h4.143c.452-.625.941-1.083 1.455-1.373.519-.291 1.184-.436 2.005-.436.622 0 1.176.106 1.653.319.477.219.886.522 1.229.908.342.39.602.845.778 1.361.173.518.257 1.068.257 1.649 0 .559-.093 1.102-.279 1.637-.175.524-.439.988-.777 1.388-.327.4-.737.722-1.223.971-.483.247-1.032.371-1.637.371-1.031 0-1.886-.31-2.55-.923-.678-.615-1.061-1.438-1.166-2.475h-4.593c.015 1.188.254 2.227.725 3.124.461.894 1.084 1.646 1.859 2.249.779.604 1.666 1.052 2.67 1.34 1.001.29 2.057.439 3.158.439 1.139.018 2.216-.171 3.232-.567 1.016-.402 1.901-.964 2.669-1.698.762-.732 1.372-1.601 1.825-2.604.453-1.004.676-2.088.676-3.251 0-1.059-.151-2.055-.465-2.991-.309-.941-.761-1.754-1.364-2.448z"/></svg>